<svg width="152" height="152" viewBox="0 0 152 152" fill="none" xmlns="http://www.w3.org/2000/svg">
<path d="M63.3333 133H25.3333C23.6536 133 22.0427 132.333 20.855 131.145C19.6673 129.957 19 128.346 19 126.667V88.6667C19 86.987 19.6673 85.3761 20.855 84.1883C22.0427 83.0006 23.6536 82.3333 25.3333 82.3333H63.3333C65.013 82.3333 66.6239 83.0006 67.8117 84.1883C68.9994 85.3761 69.6667 86.987 69.6667 88.6667V126.667C69.6667 128.346 68.9994 129.957 67.8117 131.145C66.6239 132.333 65.013 133 63.3333 133V133ZM57 95H31.6667V120.333H57V95ZM126.667 133H88.6667C86.987 133 85.3761 132.333 84.1883 131.145C83.0006 129.957 82.3333 128.346 82.3333 126.667V88.6667C82.3333 86.987 83.0006 85.3761 84.1883 84.1883C85.3761 83.0006 86.987 82.3333 88.6667 82.3333H126.667C128.346 82.3333 129.957 83.0006 131.145 84.1883C132.333 85.3761 133 86.987 133 88.6667V126.667C133 128.346 132.333 129.957 131.145 131.145C129.957 132.333 128.346 133 126.667 133V133ZM120.333 95H95V120.333H120.333V95ZM63.3333 69.6667H25.3333C23.6536 69.6667 22.0427 68.9994 20.855 67.8117C19.6673 66.6239 19 65.013 19 63.3333V25.3333C19 23.6536 19.6673 22.0427 20.855 20.855C22.0427 19.6673 23.6536 19 25.3333 19H63.3333C65.013 19 66.6239 19.6673 67.8117 20.855C68.9994 22.0427 69.6667 23.6536 69.6667 25.3333V63.3333C69.6667 65.013 68.9994 66.6239 67.8117 67.8117C66.6239 68.9994 65.013 69.6667 63.3333 69.6667ZM57 31.6667H31.6667V57H57V31.6667ZM107.667 69.6667C93.6953 69.6667 82.3333 58.3047 82.3333 44.3333C82.3333 30.362 93.6953 19 107.667 19C121.638 19 133 30.362 133 44.3333C133 58.3047 121.638 69.6667 107.667 69.6667ZM107.667 31.6667C100.681 31.6667 95 37.3477 95 44.3333C95 51.319 100.681 57 107.667 57C114.652 57 120.333 51.319 120.333 44.3333C120.333 37.3477 114.652 31.6667 107.667 31.6667Z" fill="black"/>
</svg>
