<svg width="32" height="32" viewBox="0 0 32 32" fill="none" xmlns="http://www.w3.org/2000/svg">
<path d="M7.00391 18.6667L21.6559 18.668C21.7946 18.8973 21.9626 19.1093 22.1626 19.2987L23.1212 20.208C23.0679 20.4213 22.9959 20.6333 22.9079 20.8453C22.7404 20.729 22.5412 20.6666 22.3372 20.6667H7.00391C6.73869 20.6667 6.48434 20.772 6.2968 20.9596C6.10926 21.1471 6.00391 21.4014 6.00391 21.6667V22.876C6.00391 23.7507 6.38524 24.5827 7.04924 25.152C8.72657 26.5933 11.2532 27.3333 14.6666 27.3333C15.0546 27.3333 15.4332 27.324 15.7999 27.3053C15.9066 27.9 16.1919 28.4653 16.6399 28.9173L16.9439 29.2213C16.2212 29.296 15.4639 29.3333 14.6666 29.3333C10.8132 29.3333 7.82924 28.4587 5.74524 26.6667C5.19902 26.1973 4.76064 25.6155 4.4601 24.961C4.15955 24.3065 4.00394 23.5948 4.00391 22.8747V21.6653C4.00426 20.8699 4.32049 20.1072 4.88306 19.5449C5.44563 18.9826 6.20849 18.6667 7.00391 18.6667ZM22.6799 16.3267L23.3519 14.744C23.6666 14.0027 24.4199 13.5987 25.1599 13.7533L25.3172 13.7933L26.1572 14.0627C26.9906 14.3293 27.6292 15.0427 27.8359 15.9387C28.3252 18.0693 27.7372 20.6627 26.0732 23.72C24.4106 26.7733 22.5879 28.608 20.6066 29.2267C20.2282 29.3439 19.8263 29.3634 19.4384 29.2834C19.0505 29.2035 18.6891 29.0266 18.3879 28.7693L18.2239 28.6187L17.5852 27.9787C17.3167 27.7022 17.1433 27.3474 17.0901 26.9657C17.0369 26.5841 17.1066 26.1954 17.2892 25.856L17.3839 25.7013L18.3452 24.288C18.7239 23.732 19.3719 23.4693 19.9959 23.6013L20.1652 23.648L21.9412 24.24C22.6619 23.6903 23.2649 23.0016 23.7146 22.2147C24.1034 21.5609 24.3725 20.843 24.5092 20.0947L24.5599 19.7347L23.0812 18.332C22.8424 18.0994 22.6727 17.8053 22.5908 17.4822C22.5089 17.1591 22.518 16.8196 22.6172 16.5013L22.6799 16.328L23.3519 14.744L22.6799 16.3267V16.3267ZM14.6666 2.67333C15.5421 2.67333 16.409 2.84577 17.2178 3.1808C18.0266 3.51583 18.7616 4.0069 19.3806 4.62595C19.9997 5.24501 20.4907 5.97994 20.8258 6.78878C21.1608 7.59761 21.3332 8.46452 21.3332 9.34C21.3332 10.2155 21.1608 11.0824 20.8258 11.8912C20.4907 12.7001 19.9997 13.435 19.3806 14.054C18.7616 14.6731 18.0266 15.1642 17.2178 15.4992C16.409 15.8342 15.5421 16.0067 14.6666 16.0067C12.8985 16.0067 11.2028 15.3043 9.95253 14.054C8.70228 12.8038 7.99991 11.1081 7.99991 9.34C7.99991 7.57189 8.70228 5.8762 9.95253 4.62595C11.2028 3.37571 12.8985 2.67333 14.6666 2.67333V2.67333ZM14.6666 4.67333C14.0537 4.67333 13.4469 4.79404 12.8807 5.02856C12.3145 5.26308 11.8001 5.60683 11.3667 6.04017C10.9334 6.47351 10.5897 6.98796 10.3551 7.55414C10.1206 8.12033 9.99991 8.72716 9.99991 9.34C9.99991 9.95283 10.1206 10.5597 10.3551 11.1259C10.5897 11.692 10.9334 12.2065 11.3667 12.6398C11.8001 13.0732 12.3145 13.4169 12.8807 13.6514C13.4469 13.886 14.0537 14.0067 14.6666 14.0067C15.9042 14.0067 17.0912 13.515 17.9664 12.6398C18.8416 11.7647 19.3332 10.5777 19.3332 9.34C19.3332 8.10232 18.8416 6.91534 17.9664 6.04017C17.0912 5.165 15.9042 4.67333 14.6666 4.67333V4.67333Z" fill="black"/>
</svg>
