<svg width="32" height="32" viewBox="0 0 32 32" fill="none" xmlns="http://www.w3.org/2000/svg">
<path d="M8 9.33334H18.6667V12H8V9.33334ZM8 14.6667H24V17.3333H8V14.6667ZM8 20H11.9867V22.6667H8V20Z" fill="black"/>
<path d="M18.667 4L14.667 0V2.66667H5.33366C4.62641 2.66667 3.94814 2.94762 3.44804 3.44772C2.94794 3.94781 2.66699 4.62609 2.66699 5.33333V26.6667C2.66699 27.3739 2.94794 28.0522 3.44804 28.5523C3.94814 29.0524 4.62641 29.3333 5.33366 29.3333H10.667V26.6667H5.33366V5.33333H14.667V8L18.667 4ZM13.3337 28L17.3337 32V29.3333H26.667C27.3742 29.3333 28.0525 29.0524 28.5526 28.5523C29.0527 28.0522 29.3337 27.3739 29.3337 26.6667V5.33333C29.3337 4.62609 29.0527 3.94781 28.5526 3.44772C28.0525 2.94762 27.3742 2.66667 26.667 2.66667H21.3337V5.33333H26.667V26.6667H17.3337V24L13.3337 28Z" fill="black"/>
</svg>
