<svg width="33" height="34" viewBox="0 0 33 34" fill="none" xmlns="http://www.w3.org/2000/svg">
<path d="M13.4456 29.1502C13.9256 29.1456 14.3631 28.8881 14.626 28.4856L20.7831 18.4128L28.1161 18.3425C29.2227 18.3319 30.1075 17.4301 30.0969 16.3235C30.0863 15.2169 29.1844 14.3321 28.0778 14.3427L20.7448 14.413L14.3958 4.45999C14.2112 4.17633 13.9301 3.96915 13.6046 3.87678C13.279 3.7844 12.9309 3.8131 12.6249 3.95755C12.3188 4.102 12.0755 4.35243 11.9398 4.6625C11.8042 4.97256 11.7854 5.32126 11.8871 5.64408L14.7451 14.4704L7.41207 14.5407L5.58917 12.158C5.52778 12.0742 5.44692 12.0066 5.35356 11.961C5.26019 11.9155 5.15714 11.8933 5.0533 11.8965L4.26667 11.904C3.82669 11.9082 3.5108 12.3379 3.63488 12.7634L4.76468 16.5661L3.70792 20.3898C3.59202 20.8176 3.91609 21.2411 4.35607 21.2369L5.1427 21.2294C5.24658 21.2306 5.34919 21.2064 5.44166 21.1591C5.53413 21.1117 5.61368 21.0426 5.67345 20.9576L7.45038 18.5405L14.7834 18.4703L12.095 27.3497C11.8237 28.259 12.5123 29.1592 13.4456 29.1502Z" fill="black"/>
</svg>
