<svg width="21" height="19" viewBox="0 0 21 19" fill="none" xmlns="http://www.w3.org/2000/svg">
<path d="M13.9468 12.4976L13.0893 13.4409C12.7376 13.8277 12.54 14.3524 12.54 14.8994C12.54 15.4465 12.7376 15.9711 13.0893 16.3579C13.4409 16.7448 13.9179 16.9621 14.4152 16.9621C14.9125 16.9621 15.3895 16.7448 15.7411 16.3579L16.8836 15.1005C17.0957 14.8672 17.2538 14.5813 17.3446 14.2669C17.4355 13.9525 17.4564 13.6187 17.4057 13.2936C17.355 12.9684 17.2342 12.6614 17.0533 12.3982C16.8724 12.1351 16.6367 11.9235 16.3661 11.7812L15.9999 12.1841C15.9627 12.2251 15.9304 12.2711 15.9036 12.3209C16.1127 12.3871 16.3025 12.512 16.4542 12.6836C16.6059 12.8551 16.7143 13.0672 16.7686 13.2989C16.823 13.5306 16.8214 13.7739 16.7641 14.0048C16.7068 14.2356 16.5957 14.446 16.4418 14.6151L15.2999 15.8719C15.0653 16.1299 14.7472 16.2748 14.4155 16.2748C14.0838 16.2748 13.7657 16.1299 13.5311 15.8719C13.2966 15.6139 13.1648 15.2639 13.1648 14.8991C13.1648 14.5342 13.2966 14.1843 13.5311 13.9262L14.0268 13.3817C13.9568 13.0935 13.9298 12.7947 13.9468 12.4969V12.4976Z" fill="black"/>
<path d="M15.1165 11.212C14.9044 11.4453 14.7463 11.7311 14.6555 12.0455C14.5646 12.3599 14.5437 12.6937 14.5944 13.0189C14.6451 13.3441 14.7659 13.6511 14.9468 13.9143C15.1277 14.1774 15.3634 14.389 15.634 14.5312L16.1183 13.9977C15.9064 13.9352 15.7132 13.8124 15.5581 13.6417C15.403 13.471 15.2915 13.2585 15.2347 13.0253C15.178 12.7922 15.178 12.5468 15.2348 12.3136C15.2916 12.0805 15.4032 11.868 15.5583 11.6973L16.7002 10.4406C16.9348 10.1826 17.2529 10.0376 17.5846 10.0376C17.9163 10.0376 18.2344 10.1826 18.469 10.4406C18.7035 10.6986 18.8353 11.0485 18.8353 11.4134C18.8353 11.7783 18.7035 12.1282 18.469 12.3862L17.9733 12.9307C18.0433 13.2195 18.0702 13.5185 18.0533 13.8155L18.9108 12.8723C19.2625 12.4855 19.4601 11.9608 19.4601 11.4137C19.4601 10.8667 19.2625 10.342 18.9108 9.95522C18.5592 9.56839 18.0822 9.35107 17.5849 9.35107C17.0876 9.35107 16.6106 9.56839 16.259 9.95522L15.1165 11.212Z" fill="black"/>
<path fill-rule="evenodd" clip-rule="evenodd" d="M3.64442 10.9927C3.78222 10.8549 3.96913 10.7775 4.16402 10.7775H7.59321C7.7881 10.7775 7.975 10.8549 8.11281 10.9927C8.25062 11.1305 8.32803 11.3174 8.32803 11.5123C8.32803 11.7072 8.25062 11.8941 8.11281 12.0319C7.975 12.1697 7.7881 12.2471 7.59321 12.2471H4.16402C3.96913 12.2471 3.78222 12.1697 3.64442 12.0319C3.50661 11.8941 3.42919 11.7072 3.42919 11.5123C3.42919 11.3174 3.50661 11.1305 3.64442 10.9927ZM3.64442 5.60395C3.50661 5.74176 3.42919 5.92867 3.42919 6.12355C3.42919 6.31844 3.50661 6.50535 3.64442 6.64316C3.78222 6.78096 3.96913 6.85838 4.16402 6.85838H7.59321C7.7881 6.85838 7.975 6.78096 8.11281 6.64316C8.25062 6.50535 8.32803 6.31844 8.32803 6.12355C8.32803 5.92867 8.25062 5.74176 8.11281 5.60395C7.975 5.46615 7.7881 5.38873 7.59321 5.38873H4.16402C3.96913 5.38873 3.78222 5.46615 3.64442 5.60395ZM14.6781 5.14915C14.6814 5.33952 14.6108 5.52376 14.481 5.66306L12.5214 7.6226C12.3837 7.76021 12.1969 7.8375 12.0022 7.8375C11.8074 7.8375 11.6207 7.76021 11.4829 7.6226L10.5031 6.64283C10.4309 6.57556 10.373 6.49443 10.3329 6.4043C10.2927 6.31416 10.2711 6.21685 10.2694 6.11819C10.2676 6.01952 10.2858 5.92152 10.3227 5.83002C10.3597 5.73852 10.4147 5.6554 10.4845 5.58562C10.5542 5.51585 10.6374 5.46084 10.7289 5.42388C10.8204 5.38692 10.9184 5.36877 11.017 5.37051C11.1157 5.37225 11.213 5.39385 11.3031 5.43401C11.3933 5.47417 11.4744 5.53208 11.5417 5.60428L12.0022 6.06477L13.4424 4.62451C13.5817 4.49471 13.766 4.42404 13.9563 4.4274C14.1467 4.43076 14.3283 4.50788 14.463 4.64251C14.5976 4.77715 14.6747 4.95878 14.6781 5.14915ZM0.932645 0.932645C1.52981 0.335482 2.33973 0 3.18425 0H14.4516C15.2961 0 16.106 0.335482 16.7032 0.932645C17.3004 1.52981 17.6358 2.33973 17.6358 3.18425V8.38741L16.1662 8.49355V3.18425C16.1662 2.23779 15.398 1.46965 14.4516 1.46965H3.18425C2.23779 1.46965 1.46965 2.23779 1.46965 3.18425V14.4516C1.46965 14.9063 1.6503 15.3424 1.97185 15.664C2.2934 15.9855 2.72951 16.1662 3.18425 16.1662H12.1605L13.0238 17.6358H3.18425C2.33973 17.6358 1.52981 17.3004 0.932645 16.7032C0.335482 16.106 0 15.2961 0 14.4516V3.18425C0 2.33973 0.335482 1.52981 0.932645 0.932645Z" fill="black"/>
</svg>
