<svg width="32" height="32" viewBox="0 0 32 32" fill="none" xmlns="http://www.w3.org/2000/svg">
<path d="M21.8959 17.924C21.6397 17.6911 21.303 17.5669 20.957 17.5776C20.6109 17.5883 20.2826 17.7331 20.0412 17.9813L16.8506 21.2627C16.0826 21.116 14.5386 20.6347 12.9492 19.0493C11.3599 17.4587 10.8786 15.9107 10.7359 15.148L14.0146 11.956C14.2631 11.7148 14.4081 11.3864 14.4188 11.0403C14.4295 10.6941 14.3051 10.3574 14.0719 10.1013L9.14522 4.68399C8.91194 4.42714 8.58773 4.27133 8.24142 4.24967C7.89512 4.22801 7.55402 4.3422 7.29055 4.56799L4.39722 7.04933C4.1667 7.28068 4.02911 7.58859 4.01055 7.91466C3.99055 8.24799 3.60922 16.144 9.73189 22.2693C15.0732 27.6093 21.7639 28 23.6066 28C23.8759 28 24.0412 27.992 24.0852 27.9893C24.4112 27.9711 24.719 27.8329 24.9492 27.6013L27.4292 24.7067C27.6552 24.4434 27.7696 24.1024 27.7482 23.7561C27.7268 23.4098 27.5712 23.0855 27.3146 22.852L21.8959 17.924Z" fill="black"/>
</svg>
