<svg width="29" height="27" viewBox="0 0 29 27" fill="none" xmlns="http://www.w3.org/2000/svg">
<path d="M3.66667 0C2.69421 0 1.76158 0.386308 1.07394 1.07394C0.386309 1.76158 0 2.69421 0 3.66667V20.3333C0 21.3058 0.386309 22.2384 1.07394 22.9261C1.76158 23.6137 2.69421 24 3.66667 24H12.0293C11.6297 23.3767 11.312 22.7045 11.084 22H3.66667C2.74667 22 2 21.2533 2 20.3333V3.66667C2 2.74667 2.74667 2 3.66667 2H20.3333C21.2533 2 22 2.74667 22 3.66667V11.084C22.7045 11.312 23.3767 11.6297 24 12.0293V3.66667C24 2.69421 23.6137 1.76158 22.9261 1.07394C22.2384 0.386308 21.3058 0 20.3333 0H3.66667ZM19.9427 10.688C19.9999 10.5366 20.0196 10.3735 19.9998 10.2128C19.9801 10.0522 19.9215 9.8987 19.8293 9.76566C19.7371 9.63262 19.6139 9.524 19.4703 9.44915C19.3268 9.3743 19.1672 9.33547 19.0053 9.336H12.3333C12.0681 9.336 11.8138 9.44136 11.6262 9.62889C11.4387 9.81643 11.3333 10.0708 11.3333 10.336C11.3333 10.6012 11.4387 10.8556 11.6262 11.0431C11.8138 11.2306 12.0681 11.336 12.3333 11.336H15.9893C17.2381 10.8133 18.5923 10.5913 19.9427 10.688ZM7 7.336C6.20435 7.336 5.44129 7.65207 4.87868 8.21468C4.31607 8.77729 4 9.54035 4 10.336C4 11.1316 4.31607 11.8947 4.87868 12.4573C5.44129 13.0199 6.20435 13.336 7 13.336C7.79565 13.336 8.55871 13.0199 9.12132 12.4573C9.68393 11.8947 10 11.1316 10 10.336C10 9.54035 9.68393 8.77729 9.12132 8.21468C8.55871 7.65207 7.79565 7.336 7 7.336ZM6 10.336C6 10.0708 6.10536 9.81643 6.29289 9.62889C6.48043 9.44136 6.73478 9.336 7 9.336C7.26522 9.336 7.51957 9.44136 7.70711 9.62889C7.89464 9.81643 8 10.0708 8 10.336C8 10.6012 7.89464 10.8556 7.70711 11.0431C7.51957 11.2306 7.26522 11.336 7 11.336C6.73478 11.336 6.48043 11.2306 6.29289 11.0431C6.10536 10.8556 6 10.6012 6 10.336ZM4 17.6667C4 17.2727 4.0776 16.8826 4.22836 16.5186C4.37913 16.1546 4.6001 15.8239 4.87868 15.5453C5.15726 15.2668 5.48797 15.0458 5.85195 14.895C6.21593 14.7443 6.60603 14.6667 7 14.6667C7.39397 14.6667 7.78407 14.7443 8.14805 14.895C8.51203 15.0458 8.84274 15.2668 9.12132 15.5453C9.3999 15.8239 9.62087 16.1546 9.77164 16.5186C9.9224 16.8826 10 17.2727 10 17.6667C10 18.4623 9.68393 19.2254 9.12132 19.788C8.55871 20.3506 7.79565 20.6667 7 20.6667C6.20435 20.6667 5.44129 20.3506 4.87868 19.788C4.31607 19.2254 4 18.4623 4 17.6667ZM7 16.6667C6.73478 16.6667 6.48043 16.772 6.29289 16.9596C6.10536 17.1471 6 17.4014 6 17.6667C6 17.9319 6.10536 18.1862 6.29289 18.3738C6.48043 18.5613 6.73478 18.6667 7 18.6667C7.26522 18.6667 7.51957 18.5613 7.70711 18.3738C7.89464 18.1862 8 17.9319 8 17.6667C8 17.4014 7.89464 17.1471 7.70711 16.9596C7.51957 16.772 7.26522 16.6667 7 16.6667ZM19.0053 6H5.00533C4.74012 6 4.48576 5.89464 4.29823 5.70711C4.11069 5.51957 4.00533 5.26522 4.00533 5C4.00533 4.73478 4.11069 4.48043 4.29823 4.29289C4.48576 4.10536 4.74012 4 5.00533 4H19.0053C19.2705 4 19.5249 4.10536 19.7124 4.29289C19.9 4.48043 20.0053 4.73478 20.0053 5C20.0053 5.26522 19.9 5.51957 19.7124 5.70711C19.5249 5.89464 19.2705 6 19.0053 6Z" fill="black"/>
<path d="M27.7041 18.1103C28.0986 18.6417 28.0986 19.3591 27.7041 19.8897C26.4616 21.5603 23.4805 25 20.0001 25C16.5197 25 13.5386 21.5603 12.2961 19.8897C12.1042 19.6353 12 19.3222 12 19C12 18.6778 12.1042 18.3647 12.2961 18.1103C13.5386 16.4397 16.5197 13 20.0001 13C23.4805 13 26.4616 16.4397 27.7041 18.1103V18.1103Z" stroke="black" stroke-width="1.8" stroke-linecap="round" stroke-linejoin="round"/>
<path d="M20 22C21.6569 22 23 20.6569 23 19C23 17.3431 21.6569 16 20 16C18.3431 16 17 17.3431 17 19C17 20.6569 18.3431 22 20 22Z" stroke="black" stroke-width="1.8" stroke-linecap="round" stroke-linejoin="round"/>
</svg>
