<svg width="1024" height="1024" viewBox="0 0 1024 1024" fill="none" xmlns="http://www.w3.org/2000/svg">
<path d="M800 416C800 339.618 769.657 266.364 715.647 212.353C661.636 158.343 588.382 128 512 128C435.618 128 362.364 158.343 308.353 212.353C254.343 266.364 224 339.618 224 416C224 534.144 318.528 688.128 512 872.576C705.472 688.128 800 534.144 800 416ZM512 960C277.312 746.688 160 565.312 160 416C160 322.644 197.086 233.111 263.098 167.098C329.111 101.086 418.644 64 512 64C605.356 64 694.889 101.086 760.902 167.098C826.914 233.111 864 322.644 864 416C864 565.312 746.688 746.688 512 960Z" fill="black"/>
<path d="M857.6 704L960 960H672V896H352V960H64L166.4 704H857.6ZM788.672 704H235.328L158.528 896H865.472L788.672 704Z" fill="black"/>
<path d="M394.909 410.267V366.091H627.011V410.267H537.097V657H484.824V410.267H394.909Z" fill="black"/>
</svg>
